<?xml version="1.0" standalone="no"?>
<!DOCTYPE svg PUBLIC "-//W3C//DTD SVG 20010904//EN"
 "http://www.w3.org/TR/2001/REC-SVG-20010904/DTD/svg10.dtd">
<svg version="1.0" xmlns="http://www.w3.org/2000/svg"
 width="591.000000pt" height="422.000000pt" viewBox="0 0 591.000000 422.000000"
 preserveAspectRatio="xMidYMid meet">

<g transform="translate(0.000000,422.000000) scale(0.100000,-0.100000)"
fill="#000000" stroke="none">
<path d="M1251 3696 c-6 -7 -18 -42 -25 -77 -25 -116 -122 -431 -156 -504 -25
-56 -52 -174 -43 -190 11 -18 185 -89 223 -90 15 -1 70 -29 70 -36 0 -5 6 -9
13 -9 48 0 139 -148 157 -253 10 -57 -5 -172 -25 -197 -15 -18 -57 -128 -58
-152 -1 -10 -9 -18 -19 -18 -10 0 -18 -7 -18 -15 0 -8 -11 -40 -25 -71 -14
-31 -25 -65 -25 -75 0 -11 -4 -19 -8 -19 -5 0 -16 -21 -25 -47 -8 -27 -27 -74
-41 -105 -14 -32 -24 -58 -21 -58 2 0 -7 -25 -21 -56 -13 -30 -22 -60 -19 -65
4 -5 2 -9 -3 -9 -9 0 -40 -74 -109 -260 -13 -36 -35 -91 -49 -123 -29 -69 -29
-77 -6 -77 15 -1 15 -1 1 -10 -9 -5 -20 -27 -24 -47 -3 -21 -18 -57 -31 -81
-14 -23 -22 -47 -19 -52 3 -6 0 -10 -9 -10 -11 0 -14 -12 -12 -54 2 -39 -1
-53 -9 -50 -13 5 -25 -45 -25 -102 0 -16 -4 -34 -10 -40 -5 -5 -13 -62 -16
-127 -7 -115 -6 -118 17 -143 34 -37 72 -54 116 -52 21 1 115 -2 208 -7 194
-8 731 9 799 26 66 16 87 41 85 97 -1 26 2 55 6 65 4 9 3 17 -3 17 -13 0 -14
158 -1 166 16 10 10 34 -7 27 -13 -5 -14 -2 -6 13 15 29 40 111 57 189 20 91
60 227 150 510 40 127 81 257 91 290 30 104 145 197 243 198 79 0 133 -6 145
-18 20 -20 137 -34 336 -39 102 -3 275 -9 385 -12 184 -6 202 -5 219 11 10 10
14 24 11 34 -15 36 -24 167 -24 356 -1 190 0 203 23 250 25 55 81 117 124 139
23 12 61 13 213 6 102 -4 206 -6 230 -4 123 10 124 10 127 -13 3 -17 11 -22
48 -25 25 -2 48 0 50 4 3 5 -12 8 -32 8 -53 0 -31 17 31 23 28 3 65 9 84 13
30 6 33 4 28 -10 -5 -11 -3 -15 5 -10 7 5 9 2 5 -9 -8 -21 22 -31 54 -18 18 7
20 10 6 10 -10 1 -15 6 -12 11 3 6 28 10 55 10 50 0 80 17 80 46 0 8 10 14 25
14 31 0 31 -7 3 -29 -22 -18 -18 -41 8 -41 8 0 14 -5 14 -10 0 -6 13 -4 30 5
16 8 49 15 74 15 38 0 48 4 66 30 12 17 25 43 29 58 5 19 15 28 33 30 54 6 61
27 72 225 14 236 13 446 -3 475 l-12 22 -842 2 c-1066 4 -1449 4 -1662 0 -93
-1 -192 -2 -220 -2 -27 0 -254 -2 -504 -4 -489 -5 -470 -7 -490 47 -6 16 -34
39 -74 61 -70 39 -89 43 -106 22z m3189 -916 c8 -5 13 -10 10 -10 -68 -11
-100 -9 -100 5 0 17 65 21 90 5z m210 1 c0 -9 -60 -24 -68 -17 -2 3 -1 9 3 15
7 13 65 15 65 2z m-1076 -122 c51 -40 55 -58 60 -323 l5 -246 -39 -41 -40 -42
-332 6 c-297 5 -340 8 -399 26 -177 55 -280 187 -266 341 9 99 69 200 119 200
10 0 36 -13 59 -29 22 -17 45 -31 51 -33 5 -2 11 -19 13 -38 14 -168 62 -287
151 -375 42 -41 64 -55 85 -55 30 0 38 17 17 38 -9 9 -8 16 5 30 23 25 22 34
-12 84 -42 63 -61 129 -61 212 l0 74 66 82 c41 49 72 79 80 76 8 -3 14 -1 14
3 0 5 -12 14 -27 19 -20 8 34 11 198 11 215 1 228 0 253 -20z m-1111 -411 c13
-10 15 -19 8 -43 -5 -16 -10 -22 -10 -12 -1 9 -5 17 -10 17 -5 0 -7 -18 -4
-40 5 -33 3 -40 -11 -40 -9 0 -16 5 -16 11 0 5 -4 8 -9 5 -4 -3 -17 4 -27 15
-15 16 -16 21 -4 19 28 -4 40 0 40 15 0 8 5 15 11 15 5 0 7 4 4 10 -3 6 1 7 9
4 22 -8 20 13 -1 25 -10 6 -13 11 -7 11 5 0 18 -6 27 -12z"/>
<path d="M4921 3629 l-19 -39 85 0 86 0 -19 21 c-22 24 -46 38 -85 49 -27 8
-31 6 -48 -31z"/>
<path d="M4082 2703 c37 -2 100 -2 140 0 40 1 10 3 -67 3 -77 0 -110 -1 -73
-3z"/>
</g>
</svg>
